<svg xmlns="http://www.w3.org/2000/svg" style="display: none;"> 
    <!-- favicon -->
    <symbol id="favicon" viewBox="0 0 120 120">
        <path fill-rule="evenodd" clip-rule="evenodd" d="M39.6009 0.294832C37.3843 0.61363 34.968 1.56625 33.1977 2.81951C31.9156 3.7271 30.3707 5.42247 29.7503 6.60282L29.2128 7.62544L27.9314 7.79029C25.7209 8.07481 23.6597 9.11936 21.8761 10.8592C20.7337 11.9734 20.0671 13.0007 19.5524 14.4397C18.7282 16.7444 18.6442 19.7356 19.3543 21.4903C19.5599 21.9982 19.7139 22.4214 19.6967 22.4309C19.6796 22.4403 19.3708 22.5311 19.0106 22.6325C18.0341 22.9076 17.0903 23.5682 15.9822 24.7524C14.3074 26.5424 13.5889 28.4195 13.5919 30.9969C13.5944 33.0921 14.0455 34.7238 15.0232 36.174L15.5244 36.9172L14.8231 37.6606C13.3443 39.2287 12.4587 40.9156 12.1685 42.7176C11.6776 45.7657 13.1013 48.6701 15.7149 49.9516C16.7001 50.4348 16.7108 50.4462 16.6309 50.9371C16.473 51.9081 15.7102 52.6319 14.8696 52.608C14.6121 52.6008 14.1317 52.4574 13.8016 52.2894C12.9531 51.8573 12.3485 51.8801 12.2307 52.3488C12.1022 52.8597 12.291 53.9654 12.6297 54.6844C13.2532 56.0084 14.7139 57.2352 16.3551 57.8132C17.2767 58.138 19.4227 58.216 20.2839 57.9563C20.8652 57.7809 20.8969 57.9457 20.4052 58.589C20.1529 58.9192 19.6705 59.2059 18.6954 59.6053C13.6797 61.6602 10.174 64.293 7.88821 67.7217C6.25481 70.172 6.11133 70.6259 3.45467 81.7577C0.329451 94.8532 -0.016146 96.6359 0.140428 98.8579C0.506834 104.056 3.53645 107.624 8.76333 109.015C9.97009 109.336 10.5341 109.401 12.2001 109.412C13.3593 109.42 14.2504 109.365 14.3296 109.28C14.4148 109.19 14.2568 107.092 13.9084 103.689C13.6018 100.693 13.0873 95.6606 12.7648 92.5053C12.4425 89.35 11.9098 84.1541 11.5812 80.9588C10.9273 74.6026 10.9079 73.3912 11.4377 71.994C12.1436 70.1325 13.8251 68.515 15.6337 67.9574C16.5319 67.6806 17.0136 67.6695 28.2661 67.6695C34.7003 67.6695 39.9647 67.6141 39.9647 67.5464C39.9647 67.4785 39.6864 67.2989 39.3463 67.147C38.1782 66.6253 36.176 65.2019 34.9245 64.0037C32.8923 62.0577 31.7747 60.2548 31.5809 58.6099C31.4859 57.8023 31.7138 56.7767 31.9882 56.7767C32.0704 56.7767 32.8021 57.4487 33.6139 58.27C38.9841 63.7032 46.248 66.2784 52.5517 64.9841C56.9159 64.088 61.0159 61.8645 64.4516 58.5309C66.5965 56.4497 66.6667 56.4393 66.6667 58.2004C66.6667 59.1841 66.6039 59.4492 66.1446 60.4076C64.9503 62.8989 62.2691 65.4117 58.9656 67.1355L58.0813 67.5969L70.159 67.6719C78.4628 67.7233 82.3758 67.7971 82.6817 67.9079C84.842 68.6901 86.344 70.2407 86.9865 72.352C87.4251 73.7929 87.3562 74.7935 85.8205 89.31C85.098 96.1399 84.3297 103.412 84.1131 105.47C83.8966 107.527 83.7534 109.245 83.795 109.286C83.8365 109.328 84.7472 109.369 85.8184 109.379C87.9259 109.397 89.2796 109.158 91.2474 108.418C96.0011 106.632 98.6202 102.049 98.0265 96.5553C97.8174 94.6211 97.5533 93.3175 96.0433 86.7684C93.8724 77.3532 92.6636 72.3973 92.2678 71.289C90.4635 66.2365 85.5633 61.8407 78.9854 59.374C78.2192 59.0867 78.0151 58.9362 77.7849 58.489C77.6324 58.1926 77.5075 57.9227 77.5075 57.8893C77.5075 57.8559 77.8062 57.8921 78.1715 57.97C78.5366 58.0477 79.437 58.0888 80.1723 58.0612C81.3022 58.0189 81.6555 57.9418 82.455 57.5628C84.4864 56.6004 85.9836 54.6501 86.0077 52.9353C86.0197 52.0839 86.0077 52.055 85.6252 52.011C85.4081 51.986 84.9193 52.1029 84.5391 52.2708C84.1588 52.4386 83.6372 52.5838 83.3796 52.5935C82.543 52.6249 81.7916 51.9099 81.6324 50.9308C81.5514 50.4321 81.5581 50.4247 82.5155 49.9775C86.3207 48.2002 87.3843 43.1734 84.7755 39.2961C84.3917 38.7256 83.8108 38.0004 83.4847 37.6847C83.1584 37.3689 82.8915 37.0541 82.8915 36.9851C82.8915 36.9161 83.0531 36.6483 83.2505 36.3899C84.2761 35.0479 84.8666 32.6831 84.7407 30.4219C84.6011 27.9096 83.7904 26.135 81.9351 24.2801C81.0602 23.4053 79.5309 22.5009 78.9263 22.5006C78.6032 22.5005 78.6069 22.393 78.956 21.6053C79.3934 20.6185 79.5958 18.5601 79.3977 17.1159C79.0241 14.3924 78.107 12.5084 76.3303 10.814C74.4872 9.05647 72.2899 7.98607 70.0489 7.75398L69.0656 7.65202L68.5338 6.64203C67.4335 4.5522 64.9052 2.40747 62.2846 1.34113C60.0817 0.444573 58.6395 0.210012 55.3893 0.219017C52.412 0.227296 51.5576 0.355686 49.9764 1.03235L49.2927 1.32501L48.012 0.876075C47.3075 0.62917 46.3055 0.361641 45.7853 0.281469C44.6622 0.108636 40.8378 0.116915 39.6009 0.294832ZM49.6727 15.0757C50.7917 17.1094 52.9026 19.5027 54.9711 21.0835C57.0917 22.7041 59.3119 23.5626 62.5588 24.0175C63.4082 24.1364 64.4009 24.3734 64.7648 24.5442C65.5744 24.924 66.2361 25.6499 66.4397 26.3817C66.7564 27.5202 66.5546 36.8064 66.1473 39.8346C65.6708 43.378 64.0243 46.5297 62.2065 47.3786C61.1597 47.8673 61.0229 47.7982 58.8816 45.6959C55.8337 42.7032 54.0994 41.7298 52.0147 41.8415C51.183 41.886 50.7577 41.9974 50.0642 42.3525L49.1771 42.8065L48.2506 42.3481C47.4171 41.9358 47.1919 41.8898 46.009 41.8898C44.8268 41.8898 44.593 41.9375 43.6938 42.3625C42.2602 43.0402 41.4484 43.6683 39.293 45.7678C37.2496 47.7581 37.1054 47.8338 36.1297 47.427C33.949 46.5175 32.3421 42.8695 31.9635 37.9683C31.6992 34.5497 31.5989 27.5867 31.8021 26.7689C32.2442 24.989 33.127 24.4145 36.1188 23.9604C40.0426 23.3646 42.6351 22.0453 45.4215 19.2261C46.63 18.0033 48.215 15.9088 48.741 14.8391C48.9081 14.4996 49.0806 14.2226 49.1247 14.2236C49.1688 14.2245 49.4155 14.6079 49.6727 15.0757ZM27.9849 33.4296C29.0655 34.4199 29.1901 34.8361 29.1913 37.46C29.1917 38.6981 29.1294 39.8092 29.0526 39.929C28.9285 40.1226 28.8688 40.1225 28.5168 39.9279C27.9039 39.5887 26.9333 38.3037 26.5812 37.3647C26.3102 36.642 26.2701 36.282 26.3109 34.9416C26.3553 33.4916 26.3863 33.3451 26.7027 33.0898C26.8915 32.9371 27.1059 32.8124 27.1788 32.8124C27.2517 32.8124 27.6146 33.0902 27.9849 33.4296ZM71.5616 33.0902C71.8903 33.3561 71.9052 33.4484 71.9052 35.2325C71.9052 37.0764 71.8998 37.1069 71.4119 38.0049C70.9011 38.9451 69.8221 40.0743 69.4346 40.0743C69.2445 40.0743 69.2132 39.7033 69.2132 37.4527C69.2132 35.4695 69.2635 34.734 69.4202 34.4315C69.6427 34.0022 70.8664 32.8124 71.0855 32.8124C71.1584 32.8124 71.3727 32.9374 71.5616 33.0902ZM50.7375 48.5587C52.4608 49.3367 54.9414 50.1447 56.3715 50.394C57.29 50.5541 57.4265 50.6177 57.4265 50.8846C57.4265 51.7479 55.6764 52.9469 54.1933 53.0997C53.2546 53.1964 52.8972 53.043 52.2088 52.2477C51.5775 51.5185 50.7989 51.13 49.7494 51.0204C48.1578 50.8544 46.5107 51.4504 45.8504 52.431C45.4661 53.0018 44.9122 53.2013 43.9798 53.1053C42.7029 52.9738 41.3883 52.1664 40.8853 51.2046C40.7655 50.9757 40.7223 50.7378 40.7891 50.6759C40.8559 50.6141 41.4672 50.4555 42.1474 50.3234C43.9028 49.9832 45.9254 49.3297 47.5315 48.5845C48.2918 48.2317 49.0044 47.9372 49.115 47.9301C49.2256 47.9229 49.9556 48.2059 50.7375 48.5587ZM16.4237 71.3688C15.262 71.7308 14.4419 72.6079 14.157 73.7932C14.1058 74.0059 14.5528 78.8423 15.1501 84.5409C15.7476 90.2393 16.4701 97.1892 16.7556 99.9851C17.0412 102.781 17.4036 106.266 17.5607 107.73C17.7179 109.194 17.8465 110.583 17.8465 110.816V111.241H15.3893H12.9322L12.7001 111.729C12.3264 112.515 12.1304 113.695 12.2097 114.682C12.3511 116.441 13.4594 117.955 15.2018 118.77L16.0276 119.156H49.1321H82.2367L83.0438 118.779C85.1681 117.784 86.0811 116.143 86.1127 113.261C86.1362 111.124 86.3154 111.241 83.032 111.241C81.5141 111.241 80.2723 111.191 80.2723 111.131C80.2723 110.83 82.1427 93.4457 83.4871 81.2493C83.9065 77.4458 84.1858 74.3273 84.1356 74.0085C83.9413 72.7751 83.2137 71.8774 82.0589 71.4462C81.288 71.1582 80.9512 71.1554 49.163 71.165C22.7962 71.173 16.9347 71.2094 16.4237 71.3688ZM79.967 74.8247C80.1592 74.9233 80.3864 75.1158 80.4718 75.2524C80.6128 75.4777 79.5498 85.7089 77.721 101.728C77.5295 103.405 77.2304 106.15 77.0566 107.828C76.8827 109.505 76.6757 110.96 76.5969 111.059C76.4829 111.204 70.814 111.241 49.1247 111.241C25.6929 111.241 21.7667 111.212 21.5893 111.034C21.4558 110.901 21.3208 110.192 21.2092 109.037C21.1139 108.053 20.9068 106.005 20.7489 104.487C20.5909 102.97 19.8744 96.0745 19.1567 89.1648C18.439 82.2551 17.8143 76.3699 17.7685 76.0865C17.672 75.4883 18.0753 74.8468 18.6134 74.7431C18.7918 74.7087 32.5908 74.6726 49.2777 74.6629C73.0991 74.6491 79.6926 74.6838 79.967 74.8247ZM52.0704 81.1296C51.4732 81.4233 51.2469 81.8625 50.3241 84.5172C49.9214 85.6755 48.8283 88.8126 47.8948 91.4886C43.8599 103.057 43.8407 103.128 44.5206 103.917C44.781 104.219 45.0259 104.323 45.6084 104.379C46.3115 104.446 46.3918 104.419 46.8492 103.961C47.2093 103.6 47.475 103.069 47.8576 101.946C48.4337 100.254 49.8532 96.174 52.3797 88.9469C54.5927 82.6172 54.586 82.6413 54.3136 81.9905C54.086 81.447 53.3355 80.8853 52.8428 80.8901C52.6827 80.8916 52.3352 80.9994 52.0704 81.1296ZM40.1399 84.547C39.5253 84.7101 32.3415 91.6057 32.1171 92.2479C32.0074 92.5622 32.0189 92.7969 32.1603 93.1349C32.2709 93.3989 33.9011 95.0894 35.9897 97.1056C38.9838 99.9961 39.719 100.634 40.1481 100.714C41.1814 100.908 42.0075 100.462 42.2233 99.5933C42.4257 98.779 42.0772 98.3006 39.2342 95.4912C37.7152 93.9901 36.4724 92.7082 36.4724 92.6427C36.4724 92.577 37.6797 91.3358 39.1552 89.8845C42.4433 86.6503 42.7753 86.0696 41.8928 85.0977C41.413 84.5693 40.7915 84.374 40.1399 84.547ZM56.8405 84.7647C56.6426 84.9008 56.4009 85.1132 56.3034 85.2367C56.0614 85.5431 56.0725 86.3361 56.3254 86.8119C56.4399 87.0276 57.7168 88.3798 59.1629 89.8169C60.6089 91.2539 61.7919 92.5295 61.7919 92.6517C61.7919 92.7737 60.6364 93.9813 59.2242 95.3351C57.812 96.6889 56.5353 97.9949 56.3872 98.2373C56.0917 98.7209 56.0319 99.6279 56.2667 100.066C56.6343 100.751 57.8917 100.987 58.6667 100.515C58.9087 100.368 60.7278 98.6523 62.7092 96.7031C66.0485 93.4178 66.3115 93.1223 66.3072 92.6572C66.3033 92.1978 66.0002 91.8526 62.7075 88.5564C60.73 86.5768 58.9029 84.8582 58.6474 84.7372C58.0344 84.4469 57.2859 84.4582 56.8405 84.7647Z" fill="black"/>
    </symbol>
    
    <!-- skills icons -->
    <symbol id="css" viewBox="0 0 120 120">
        <path d="M22.1325 101.154L13.71 7.4375H106.29L97.8562 101.139L59.9437 111.562L22.1325 101.154Z" fill="#1572B6"/>
        <path d="M60 103.597L90.6375 95.174L97.845 15.1019H60V103.597Z" fill="#33A9DC"/>
        <path d="M60 49.054H75.3375L76.395 37.2842H60V25.7896H89.0625L88.785 28.8724L85.9387 60.5487H60V49.054Z" fill="white"/>
        <path d="M60.0711 78.9045L60.0186 78.9193L47.1112 75.4609L46.2862 66.2942H34.6499L36.2737 84.3413L60.0149 90.8788L60.0711 90.864V78.9045Z" fill="#EBEBEB"/>
        <path d="M74.3513 60.0615L72.9563 75.4534L60.03 78.9119V90.8714L83.79 84.3412L83.9663 82.4001L85.98 60.0615H74.3513Z" fill="white"/>
        <path d="M60.0411 25.7896V37.2842H32.0436L31.8111 34.6997L31.2824 28.8724L31.0049 25.7896H60.0411ZM59.9999 49.054V60.5487H47.2536L47.0211 57.9642L46.4961 52.1369L46.2186 49.054H59.9999Z" fill="#EBEBEB"/>
    </symbol>
    <symbol id="git" viewBox="0 0 120 120">
        <g clip-path="url(#clip0_2_5685)">
        <path d="M103.02 47.8219L57.1758 1.98038C54.5372 -0.6598 50.2552 -0.6598 47.6134 1.98038L38.0937 11.5001L50.1699 23.5763C52.9762 22.6281 56.1943 23.2642 58.4313 25.5012C60.6789 27.7525 61.3106 30.9981 60.3393 33.8134L71.9775 45.452C74.7932 44.482 78.0421 45.1095 80.291 47.3621C83.434 50.5039 83.434 55.596 80.291 58.7399C77.1471 61.8841 72.055 61.8841 68.9095 58.7399C66.5454 56.3733 65.9613 52.9013 67.1582 49.9888L56.3046 39.1352L56.3034 67.6973C57.0902 68.0863 57.8088 68.6002 58.4313 69.2189C61.5743 72.3607 61.5743 77.4532 58.4313 80.5995C55.2874 83.7422 50.1929 83.7422 47.0535 80.5995C43.9105 77.4532 43.9105 72.3611 47.0535 69.2193C47.8067 68.4658 48.7019 67.869 49.6871 67.4635V38.6352C48.7004 38.2324 47.8048 37.6353 47.0535 36.8793C44.6722 34.5013 44.0996 31.0071 45.3198 28.0831L33.4154 16.1775L1.98105 47.6099C-0.660352 50.2525 -0.660352 54.5349 1.98105 57.1755L47.8259 103.018C50.4652 105.658 54.7464 105.658 57.3891 103.018L103.019 57.3884C105.66 54.747 105.66 50.4621 103.019 47.8219" fill="#DE4C36"/>
        </g>
        <defs>
        <clipPath id="clip0_2_5685">
        <rect width="105" height="105" fill="white"/>
        </clipPath>
        </defs>
    </symbol>
    <symbol id="html" viewBox="0 0 120 120">
        <path d="M22.1323 102.004L13.7061 7.5H106.294L97.856 101.989L59.9436 112.5L22.1323 102.004Z" fill="#E44F26"/>
        <path d="M60 104.468L90.6375 95.9738L97.845 15.2288H60V104.468Z" fill="#F1662A"/>
        <path d="M60 50.2762H44.6625L43.605 38.4075H60V26.8162H30.9375L31.215 29.9287L34.0613 61.8675H60V50.2762ZM60 80.3775L59.9475 80.3925L47.04 76.9087L46.215 67.665H34.5787L36.2025 85.86L59.9475 92.4525L60 92.4375V80.3775Z" fill="#EBEBEB"/>
        <path d="M59.959 50.2762V61.8675H74.2315L72.889 76.9012L59.959 80.3887V92.4487L83.7227 85.86L83.8952 83.9025L86.6177 53.3887L86.9027 50.2762H59.959ZM59.959 26.8162V38.4075H87.9565L88.189 35.805L88.7177 29.9287L88.9952 26.8162H59.959Z" fill="white"/>
    </symbol>
    <symbol id="TypeScript" viewBox="0 0 120 120">
        <path d="M21.2531 44.0625H114.694V113.128H21.2531V44.0625Z" fill="white"/>
        <path d="M1.40625 59.9155V118.509H118.594V1.32178H1.40625V59.9155ZM95.8406 55.228C98.6474 55.8794 101.198 57.3473 103.172 59.4468C104.258 60.5779 105.203 61.8372 105.984 63.1968C105.984 63.3468 100.922 66.7687 97.8375 68.6812C97.725 68.7562 97.275 68.2686 96.7781 67.528C96.2151 66.5565 95.415 65.7434 94.4527 65.1647C93.4904 64.586 92.3971 64.2605 91.275 64.2186C87.7219 63.9749 85.4344 65.8405 85.4531 68.9061C85.4247 69.6693 85.5994 70.4264 85.9594 71.0999C86.7375 72.7218 88.1906 73.6874 92.7469 75.6561C101.138 79.2655 104.728 81.6468 106.959 85.0311C109.453 88.7811 110.006 94.8374 108.319 99.3187C106.444 104.194 101.85 107.503 95.3531 108.6C92.3858 108.94 89.3876 108.908 86.4281 108.506C81.8922 107.758 77.7139 105.581 74.5031 102.291C73.425 101.1 71.325 97.9968 71.4563 97.7718C71.7978 97.5167 72.1582 97.288 72.5344 97.0874L76.875 94.6874L80.2406 92.7374L80.9437 93.778C82.1308 95.4751 83.6408 96.9215 85.3875 98.0343C89.1375 100.003 94.2562 99.7311 96.7875 97.453C97.6374 96.6182 98.1676 95.5118 98.2858 94.3264C98.404 93.141 98.1027 91.9517 97.4344 90.9655C96.4969 89.6624 94.6219 88.5655 89.3812 86.278C83.3344 83.6718 80.7281 82.0593 78.3469 79.4905C76.8608 77.7951 75.7633 75.7953 75.1312 73.6311C74.6602 71.1584 74.5906 68.626 74.925 66.1311C76.1719 60.2905 80.55 56.2124 86.9437 55.003C89.9048 54.6372 92.9041 54.7194 95.8406 55.2468V55.228ZM68.3344 60.1405V64.9405H53.1187V108.281H42.3281V64.9312H27.075V60.2437C27.0272 58.6272 27.0647 57.0093 27.1875 55.3968C27.2625 55.3124 36.5625 55.3124 47.8125 55.3124H68.2781L68.3344 60.1405Z" fill="#007ACC"/>
    </symbol>
    <symbol id="react" viewBox="0 0 120 120">
        <g clip-path="url(#clip0_2_5687)">
        <path d="M92.9055 32.7027C91.703 32.2887 90.4903 31.9051 89.2686 31.5523C89.4738 30.7106 89.6627 29.8792 89.8304 29.0623C92.5837 15.6483 90.7838 4.84178 84.6359 1.28375C78.7415 -2.12722 69.1015 1.42949 59.3658 9.93342C58.4063 10.773 57.4681 11.6368 56.552 12.524C55.9388 11.934 55.3148 11.3556 54.6802 10.7888C44.4766 1.69616 34.2492 -2.13608 28.108 1.43215C22.2188 4.85374 20.4749 15.0127 22.9537 27.7254C23.2003 28.9844 23.4787 30.237 23.7887 31.4819C22.341 31.8947 20.9441 32.3342 19.6072 32.8019C7.64431 36.9881 0.00463867 43.5483 0.00463867 50.3529C0.00463867 57.3808 8.20617 64.43 20.666 68.7043C21.6762 69.0495 22.6947 69.3692 23.7208 69.6634C23.3875 71.0042 23.0917 72.354 22.8336 73.7114C20.4705 86.2035 22.3159 96.1223 28.1892 99.5222C34.2554 103.033 44.4369 99.4247 54.3505 90.7268C55.1544 90.0196 55.9406 89.2925 56.7083 88.546C57.7003 89.5066 58.7188 90.4393 59.7626 91.343C69.3659 99.6365 78.85 102.985 84.7176 99.5762C90.7781 96.055 92.7479 85.3995 90.1906 72.4356C89.9891 71.42 89.7632 70.4094 89.5131 69.4047C90.2281 69.1921 90.9299 68.9732 91.614 68.7455C104.567 64.4384 112.995 57.4747 112.995 50.3529C112.995 43.5234 105.109 36.919 92.9055 32.7027ZM90.0961 64.1474C89.4782 64.3525 88.8444 64.5505 88.1982 64.7432C86.7682 60.1995 84.8385 55.3684 82.4768 50.3764C84.7304 45.5036 86.5859 40.734 87.9758 36.22C89.1317 36.5558 90.2533 36.9097 91.3346 37.2832C101.791 40.8961 108.168 46.2372 108.168 50.3529C108.168 54.7367 101.28 60.4277 90.0961 64.1474ZM85.4556 73.3765C86.5864 79.1087 86.7475 84.2916 85.9985 88.3435C85.3258 91.9844 83.9726 94.4115 82.2989 95.3839C78.7384 97.4526 71.1234 94.7637 62.9109 87.6706C61.94 86.8305 60.9926 85.9634 60.0698 85.0703C63.2538 81.5756 66.4356 77.5131 69.5411 73.0008C75.0035 72.5144 80.164 71.7188 84.8438 70.6331C85.0693 71.5426 85.2732 72.4573 85.4556 73.3765ZM38.5256 95.0264C35.0467 96.2592 32.2758 96.2946 30.6008 95.3254C27.0368 93.2624 25.5551 85.298 27.5761 74.6151C27.8164 73.3527 28.0914 72.0972 28.401 70.8502C33.0292 71.8779 38.1522 72.6168 43.6274 73.0624C46.7541 77.4776 50.0277 81.5358 53.327 85.0894C52.6258 85.7703 51.9081 86.4338 51.1744 87.0793C46.7903 90.9252 42.3973 93.654 38.5256 95.0264ZM22.2276 64.1204C16.718 62.2302 12.1679 59.7738 9.04919 57.0933C6.24649 54.6848 4.8319 52.2932 4.8319 50.3529C4.8319 46.2234 10.9656 40.9564 21.1961 37.3766C22.4377 36.9425 23.7371 36.5327 25.0855 36.1482C26.4996 40.7641 28.3543 45.5904 30.5924 50.4707C28.3251 55.4233 26.444 60.3267 25.0162 64.997C24.0796 64.7278 23.1498 64.4355 22.2276 64.1204ZM27.6909 26.7947C25.5674 15.9031 26.9776 7.68706 30.5267 5.62497C34.3066 3.42867 42.6652 6.56011 51.4754 14.4115C52.0499 14.9247 52.6151 15.4482 53.1707 15.9819C49.8878 19.52 46.6442 23.548 43.5453 27.9371C38.2312 28.4315 33.1444 29.2253 28.4677 30.2889C28.1795 29.131 27.9205 27.9661 27.6909 26.7951V26.7947ZM76.43 38.8739C75.3254 36.9589 74.1797 35.0679 72.9939 33.2024C76.599 33.66 80.0532 34.2673 83.2968 35.0098C82.3232 38.1425 81.1094 41.4175 79.6807 44.7753C78.6364 42.7867 77.5526 40.8191 76.43 38.8739ZM56.5542 19.4443C58.7805 21.8652 61.0103 24.5678 63.2035 27.5003C58.7545 27.2894 54.298 27.2886 49.849 27.4977C52.0443 24.5922 54.2931 21.8931 56.5542 19.4443ZM36.5509 38.9071C35.4424 40.8367 34.3788 42.792 33.3612 44.7713C31.9558 41.4255 30.7531 38.1355 29.7711 34.9584C32.9948 34.2346 36.4326 33.6427 40.0148 33.1935C38.8158 35.0704 37.6608 36.9754 36.5509 38.9067V38.9071ZM40.1176 67.8569C36.4168 67.4423 32.9273 66.881 29.7044 66.1767C30.7019 62.9429 31.9311 59.5829 33.3669 56.1653C34.3886 58.1461 35.4566 60.1026 36.5699 62.033C37.7148 64.0176 38.9003 65.9614 40.1176 67.8569ZM56.6875 81.6027C54.3995 79.1255 52.1176 76.3848 49.8891 73.4372C52.0527 73.5222 54.2582 73.5656 56.5 73.5656C58.803 73.5656 61.0796 73.5138 63.3204 73.4137C61.1202 76.4145 58.8988 79.1592 56.6875 81.6027ZM79.7262 55.9907C81.2365 59.446 82.5094 62.7883 83.5202 65.9667C80.2443 66.7171 76.7072 67.3214 72.9803 67.7701C74.1745 65.8699 75.331 63.9461 76.449 61.9998C77.5857 60.0214 78.6783 58.0179 79.7262 55.9907ZM72.2679 59.5794C70.5563 62.5634 68.7486 65.4909 66.8474 68.357C63.4037 68.6018 59.9523 68.7234 56.5 68.7216C52.9836 68.7216 49.5634 68.6118 46.2699 68.3974C44.3191 65.5378 42.4769 62.6053 40.747 59.6059H40.7475C39.0258 56.6225 37.4176 53.5745 35.9264 50.4685C37.4138 47.3618 39.0171 44.3124 40.7329 41.3267L40.7325 41.3271C42.4476 38.3407 44.2752 35.4206 46.2112 32.5734C49.5713 32.3182 53.0171 32.1853 56.4995 32.1853H56.5C59.9983 32.1853 63.4484 32.3195 66.8077 32.5765C68.7242 35.4195 70.5401 38.3295 72.252 41.301C73.9735 44.2801 75.598 47.3147 77.123 50.3999C75.6137 53.5166 73.9943 56.5783 72.2679 59.5794ZM82.2252 5.48056C86.0086 7.67067 87.4801 16.5024 85.1029 28.0842C84.9511 28.8231 84.7807 29.5757 84.5953 30.339C79.9071 29.2528 74.8168 28.4452 69.4873 27.9433C66.3827 23.506 63.1655 19.4717 59.936 15.9792C60.7824 15.1604 61.6489 14.3628 62.5348 13.5871C70.8767 6.30141 78.673 3.42468 82.2252 5.48056ZM56.5 40.2263C62.0723 40.2263 66.5897 44.7603 66.5897 50.3529C66.5897 55.9456 62.0723 60.4795 56.5 60.4795C50.9277 60.4795 46.4102 55.9456 46.4102 50.3529C46.4102 44.7603 50.9277 40.2263 56.5 40.2263Z" fill="#00D8FF"/>
        </g>
        <defs>
        <clipPath id="clip0_2_5687">
        <rect width="113" height="101" fill="white"/>
        </clipPath>
        </defs>
    </symbol>
    <symbol id="redux" viewBox="0 0 120 120">
        <path d="M83.1469 82.6031C74.7094 99.8531 59.9344 111.459 40.3875 115.275C37.3905 116.01 34.3137 116.369 31.2281 116.344C19.9781 116.344 9.66561 111.656 4.65936 103.978C-2.06251 93.75 -4.35001 72.0656 17.8125 56.025C18.2625 58.4719 19.1812 61.8281 19.7906 63.8156C15.44 67.0478 11.8788 71.2244 9.37499 76.0313C5.24999 84.1313 5.70936 92.2219 10.5937 99.7031C13.9687 104.747 19.3125 107.813 26.1844 108.75C34.7675 109.836 43.475 108.197 51.075 104.063C62.9906 97.8 70.9312 90.3188 76.125 80.0906C74.6564 78.573 73.7871 76.5747 73.6781 74.4656C73.5996 72.2024 74.4222 70.0004 75.9654 68.343C77.5086 66.6856 79.6463 65.7081 81.9094 65.625H82.2281C84.4293 65.614 86.5505 66.4496 88.1529 67.9589C89.7552 69.4682 90.7159 71.5358 90.8364 73.7337C90.9568 75.9316 90.2277 78.0918 88.7999 79.7671C87.3721 81.4425 85.3549 82.5048 83.1656 82.7344L83.1469 82.6031ZM110.025 63.6656C121.472 76.6406 121.781 91.9125 117.356 100.772C113.231 108.863 102.356 116.963 87.7312 116.963C80.9041 116.823 74.188 115.208 68.0437 112.228C70.1906 110.7 73.2375 108.253 74.9156 106.725C79.6533 108.779 84.7524 109.868 89.9156 109.931C99.3844 109.931 106.556 105.506 110.831 97.4156C113.578 92.0719 113.737 85.8094 111.141 79.3969C107.955 71.3283 102.284 64.4825 94.95 59.85C85.3281 53.3639 73.9851 49.9061 62.3812 49.9219H59.6344C58.9938 51.4015 57.9518 52.6722 56.6263 53.5901C55.3008 54.5081 53.7447 55.0365 52.1344 55.1156H51.8437C49.6164 55.0883 47.4875 54.1936 45.9091 52.6218C44.3308 51.05 43.4273 48.9248 43.3907 46.6976C43.3541 44.4704 44.1872 42.3166 45.713 40.6938C47.2389 39.0709 49.3372 38.1068 51.5625 38.0063H51.8719C53.4225 38.0074 54.9429 38.4359 56.266 39.2446C57.5891 40.0534 58.6637 41.2111 59.3719 42.5906H61.8187C81.3187 42.5906 98.4375 50.0719 110.025 63.6656ZM32.4469 85.2281C32.2856 83.6713 32.6628 82.1062 33.5156 80.7938C24.9656 65.9813 20.3906 47.2031 27.4125 27.6563C32.4469 12.9656 45.1219 3.03751 58.8656 3.03751C73.5281 3.03751 88.8 15.8719 90.6281 40.6031C88.3406 39.8438 85.0031 38.7281 82.9969 38.3156C82.5 30.225 75.6656 10.0688 59.475 10.3688C53.6719 10.5281 45.1219 13.275 40.725 18.9188C35.2868 25.6561 32.1229 33.9433 31.6875 42.5906C30.6562 54.4479 33.4382 66.3248 39.6281 76.4906C39.9698 76.3658 40.334 76.3147 40.6969 76.3406H40.9969C43.2645 76.2996 45.4555 77.1611 47.0879 78.7355C48.7204 80.3099 49.6605 82.4683 49.7015 84.7359C49.7426 87.0035 48.8811 89.1946 47.3067 90.827C45.7323 92.4595 43.5738 93.3996 41.3062 93.4406H40.9969C38.7846 93.4328 36.6608 92.5715 35.068 91.0363C33.4751 89.5011 32.5362 87.4104 32.4469 85.2V85.2281Z" fill="#764ABC"/>
    </symbol>
    <symbol id="styled" viewBox="0 0 120 120">
        <g clip-path="url(#clip0_90324_5)">
        <path d="M91.875 0H28.125C12.592 0 0 12.592 0 28.125V91.875C0 107.408 12.592 120 28.125 120H91.875C107.408 120 120 107.408 120 91.875V28.125C120 12.592 107.408 0 91.875 0Z" fill="url(#paint0_linear_90324_5)"/>
        <path d="M5.38454 60.5058L28.9645 70.0608V76.7494L1.05048 63.8161V59.8917L5.38454 60.5058ZM28.9645 52.6575L5.41876 62.3484L1.05094 62.8265V58.868L28.9641 45.9689L28.9645 52.6575ZM113.143 61.8708L88.8802 52.4184V45.9005L118.022 58.7995V62.7923L113.143 61.8708ZM88.8802 70.1972L113.211 60.54L118.022 59.8233V63.7819L88.8802 76.7151V70.1972Z" fill="white"/>
        <path fill-rule="evenodd" clip-rule="evenodd" d="M82.5361 28.6402C82.4011 30.7805 81.4369 33.0155 81.7055 35.0963C83.3897 38.0747 87.0966 38.5495 90.1547 38.7539C92.2734 39.1327 92.2467 37.7297 92.1047 36.1538L92.1305 28.5956C88.9322 28.6073 85.733 28.5642 82.5361 28.6402ZM57.3169 34.6261C52.11 35.5102 46.8319 37.9983 42.5002 40.9936C39.0136 43.7072 45.4931 46.3369 47.8439 46.7766C52.5736 46.8342 56.7684 43.6439 59.8753 40.3327C60.8897 38.9405 62.1567 36.8091 60.8822 35.1952C59.9091 34.3514 58.4939 34.5558 57.3169 34.6261ZM68.3967 42.1992C64.1156 43.0149 60.0422 44.7792 56.438 47.2359C53.7956 48.0656 51.6178 50.9667 54.892 52.4203C58.3303 55.1602 62.3152 54.4889 65.4816 52.6392C68.3813 50.9156 71.5134 48.7889 72.855 45.5442C74.122 41.9897 70.853 41.858 68.3967 42.1992ZM80.5416 55.9725C79.7442 59.3025 76.3908 60.8166 74.6067 63.4552C73.148 65.3798 73.8234 67.6472 75.4842 69.1622C76.2928 70.8389 77.7103 71.7759 79.2305 70.3195C83.1455 67.658 84.2283 62.4736 84.0656 57.9816C84.3548 56.1263 82.2263 57.8034 80.5416 55.9725ZM65.6433 62.227C60.4444 63.1167 55.2445 65.6498 50.9109 68.6405C47.5467 71.3503 53.8828 73.8806 56.2528 74.2819C61.0702 74.2889 65.3672 71.1844 68.4131 67.6584C69.4725 66.2583 70.7564 63.5391 68.6588 62.4258C67.7208 62.0283 66.6319 62.145 65.6433 62.227Z" fill="#B956A6"/>
        <path fill-rule="evenodd" clip-rule="evenodd" d="M42.5001 40.9936C38.5017 42.5934 34.6448 44.5359 30.8358 46.5703C30.1279 49.2023 30.6956 52.4616 30.5123 55.3476C30.4983 67.2145 30.5048 79.0819 30.5029 90.9487H39.3248C41.1061 89.2716 43.3373 88.0439 45.2723 86.5209C52.7226 81.1777 60.1706 75.8137 67.6111 70.4855C68.1586 70.7316 67.8079 67.2647 66.607 69.6726C63.7612 72.3506 59.984 74.5533 55.9861 74.3381C53.7173 73.5919 50.0601 72.3258 50.0372 69.5456C51.6342 67.6655 47.0906 70.53 45.8475 70.9402C41.8059 72.8808 37.86 75.0478 33.81 76.9523C34.7831 75.907 36.6037 74.9325 37.8947 73.8956C47.1164 67.2759 56.3358 60.6305 65.5795 54.0159C67.3575 52.7677 69.075 51.4059 70.9078 50.2392C71.0751 50.8856 71.3892 47.1487 70.0261 49.4494C67.2473 52.2037 63.4992 54.2541 59.5462 54.2822C57.3229 53.6072 52.5876 51.9933 53.6418 49.1226C54.1561 48.1153 48.8662 51.27 51.2034 49.4911C53.6911 47.6733 56.1984 45.8878 58.7053 44.0887C59.9714 43.9936 59.7018 39.2906 57.9815 42.3244C55.0917 44.8636 51.2948 47.1867 47.3147 46.6359C45.0787 45.9923 42.3961 44.7459 41.5833 42.4078C41.3142 41.8462 43.0889 40.9711 42.5001 40.9936ZM59.0653 43.8966C59.467 43.665 58.8436 44.5308 59.0653 43.8966Z" fill="#FCCC44"/>
        <path fill-rule="evenodd" clip-rule="evenodd" d="M84.3277 37.8515C83.0794 43.8122 81.7148 50.0507 80.5416 55.972C83.9128 60.2207 84.2395 53.2879 84.8292 51.3276C85.7822 47.2303 86.9109 44.1365 87.0305 39.8943C87.2836 38.4464 85.582 37.5698 84.3277 37.8515ZM88.1953 42.5254C88.3491 42.6403 88.0898 43.1362 88.1953 42.5254ZM84.2625 55.8914C84.4247 56.2406 84.4247 55.5417 84.2625 55.8914Z" fill="#62777F"/>
        <path fill-rule="evenodd" clip-rule="evenodd" d="M86.5387 38.5265C87.5906 44.4337 84.1064 51.6103 82.9669 57.18C85.5544 55.2759 87.5536 46.6369 88.0645 43.2553C88.1962 42.8686 88.3584 41.8954 88.3936 41.8603C88.5562 41.0395 90.0717 39.6487 90.1547 38.7539C91.0369 38.1314 85.8187 38.0315 86.5387 38.5265ZM84.3933 55.8914C84.2306 56.2406 84.2306 55.5417 84.3933 55.8914Z" fill="#4E5E67"/>
        <path fill-rule="evenodd" clip-rule="evenodd" d="M42.5878 41.092C41.1291 42.5526 41.6766 42.1959 42.7622 40.9814L42.5878 41.092ZM58.366 41.8153C56.6761 44.3545 50.5824 46.4779 49.815 46.6425C53.4806 45.9558 56.8974 43.6753 59.3016 41.0044C58.9196 41.1745 58.6927 41.5744 58.366 41.8153ZM41.5856 42.6398C42.4964 44.8298 45.8081 46.2848 47.4174 46.6242C45.2203 45.9164 42.6342 44.6611 41.5856 42.6398ZM58.9341 43.9064C58.4742 44.4492 56.8364 45.2611 55.973 46.0579C54.121 47.4239 52.2052 48.6933 50.3742 50.0934C51.54 50.0433 54.9563 47.4914 53.205 50.0808C54.6891 52.635 57.9202 54.4111 60.8663 54.2489C64.7569 53.6381 68.3447 51.487 70.9238 48.4954C67.793 51.5934 63.6539 54.509 59.0738 54.1073C56.8571 53.5954 50.7999 50.4665 54.8517 48.2733C56.2805 47.0981 58.7438 46.4826 59.0227 44.4173C58.9641 44.1595 59.4445 43.9078 58.9341 43.9064ZM47.8439 46.7765C49.3181 46.9692 49.3181 46.5844 47.8439 46.7765ZM70.8141 50.3039C64.9646 54.3792 59.1999 58.6139 53.401 62.7623C46.8291 67.4658 40.2853 72.1865 33.7153 76.8862C36.1856 76.0533 38.6606 74.4267 41.1145 73.3031C44.4942 71.5153 48.0577 70.1029 51.2199 67.9312C57.472 64.2506 64.0842 60.7439 68.8931 55.1128C69.9427 53.8819 70.995 51.9004 71.0419 50.5678C70.8905 50.6104 71.0053 50.0348 70.8141 50.3039ZM50.911 68.64C49.8586 69.8292 49.4311 70.679 50.5233 69.1669C50.5041 69.3422 51.4097 68.2279 50.911 68.64ZM66.9216 69.209C64.1494 72.1322 60.0492 74.2406 56.2022 74.3826C60.6497 74.415 64.6622 71.775 67.6753 68.6606C67.4775 68.4215 67.0767 69.2175 66.9216 69.209ZM67.7686 70.1278C58.455 76.9078 48.8199 83.9404 39.4749 90.6961C40.9467 91.1578 44.1525 91.3743 45.6155 89.4895C48.728 87.3417 52.2272 85.7625 55.35 83.5856C59.8721 80.6512 64.7138 77.444 67.2821 72.5123C67.4044 71.8509 68.3133 70.6612 67.7686 70.1278ZM50.0438 70.5581C50.476 72.3825 55.8788 74.4764 55.2928 74.0756C53.3006 73.3772 51.3244 72.2887 50.0438 70.5581Z" fill="#DC9624"/>
        </g>
        <defs>
        <linearGradient id="paint0_linear_90324_5" x1="0" y1="120" x2="120" y2="0" gradientUnits="userSpaceOnUse">
        <stop stop-color="#DB7093"/>
        <stop offset="1" stop-color="#F3B661"/>
        </linearGradient>
        <clipPath id="clip0_90324_5">
        <rect width="120" height="120" fill="white"/>
        </clipPath>
        </defs>
    </symbol>
    <symbol id="vscode" viewBox="0 0 120 120">
        <path d="M101.535 17.605L81.3541 7.88899C80.2144 7.33948 78.932 7.15814 77.6847 7.37011C76.4373 7.58208 75.2868 8.17686 74.3926 9.07199L8.3301 69.3C7.52857 70.0273 7.04878 71.0432 6.99627 72.1243C6.94376 73.2053 7.32283 74.2629 8.0501 75.0645C8.1376 75.159 8.2251 75.25 8.3196 75.334L13.7131 80.234C14.4179 80.8754 15.325 81.2497 16.2771 81.2919C17.2291 81.3341 18.1658 81.0416 18.9246 80.465L98.4971 20.125C99.0981 19.6689 99.8145 19.3897 100.566 19.3186C101.317 19.2476 102.073 19.3877 102.749 19.7231C103.425 20.0585 103.993 20.5758 104.391 21.217C104.789 21.8581 105 22.5975 105 23.352V23.1175C105 21.9656 104.675 20.8372 104.062 19.862C103.449 18.8868 102.573 18.1045 101.535 17.605Z" fill="#0065A9"/>
        <path d="M101.535 94.395L81.3541 104.115C80.2141 104.662 78.9321 104.843 77.6851 104.631C76.4381 104.419 75.2876 103.825 74.3926 102.932L8.3301 42.7C7.52857 41.9727 7.04878 40.9568 6.99627 39.8758C6.94376 38.7947 7.32283 37.7371 8.0501 36.9355C8.1376 36.841 8.2251 36.75 8.3196 36.666L13.7131 31.766C14.4186 31.1219 15.3278 30.7459 16.2822 30.7037C17.2366 30.6615 18.1755 30.9557 18.9351 31.535L98.4971 91.875C99.0981 92.3311 99.8145 92.6104 100.566 92.6814C101.317 92.7524 102.073 92.6123 102.749 92.2769C103.425 91.9415 103.993 91.4242 104.391 90.783C104.789 90.1419 105 89.4025 105 88.648V88.9C104.996 90.0488 104.669 91.1733 104.057 92.1451C103.444 93.1168 102.57 93.8965 101.535 94.395Z" fill="#007ACC"/>
        <path d="M81.3539 104.114C80.2139 104.662 78.9319 104.843 77.6849 104.631C76.4379 104.419 75.2874 103.825 74.3924 102.931C74.895 103.428 75.5329 103.764 76.226 103.899C76.9192 104.034 77.6368 103.962 78.2889 103.691C78.941 103.42 79.4987 102.963 79.892 102.376C80.2853 101.79 80.4968 101.1 80.4999 100.394V11.606C80.5005 10.8965 80.2905 10.2028 79.8965 9.61274C79.5025 9.02271 78.9423 8.56288 78.2867 8.29152C77.6312 8.02016 76.9098 7.94946 76.2141 8.0884C75.5183 8.22734 74.8795 8.56965 74.3784 9.07197C75.2728 8.17717 76.423 7.58235 77.6702 7.3698C78.9173 7.15724 80.1997 7.33744 81.3399 7.88547L101.517 17.5875C102.559 18.0845 103.438 18.8657 104.054 19.8411C104.67 20.8165 104.998 21.9463 105 23.1V88.9C105 90.0528 104.675 91.1822 104.061 92.1581C103.447 93.134 102.571 93.9167 101.531 94.416L81.3539 104.114Z" fill="#1F9CF0"/>
    </symbol>

    <!-- social networks icons -->
    <symbol id="vk" viewBox="0 0 120 120">
        <path d="M75.365 10H44.69C16.66 10 10 16.665 10 44.635V75.315C10 103.335 16.615 110 44.635 110H75.315C103.335 110 110 103.385 110 75.365V44.69C110 16.66 103.385 10 75.365 10ZM90.73 81.35H83.435C80.675 81.35 79.845 79.115 74.895 74.165C70.575 70 68.75 69.48 67.655 69.48C66.145 69.48 65.73 69.895 65.73 71.98V78.54C65.73 80.315 65.155 81.355 60.52 81.355C56.0225 81.0495 51.6617 79.6815 47.7955 77.3634C43.9294 75.0453 40.6683 71.8432 38.28 68.02C32.6118 60.9726 28.6701 52.6972 26.77 43.855C26.77 42.76 27.185 41.77 29.27 41.77H36.565C38.44 41.77 39.115 42.605 39.845 44.53C43.385 54.95 49.425 64.01 51.875 64.01C52.815 64.01 53.225 63.595 53.225 61.25V50.52C52.915 45.625 50.315 45.21 50.315 43.44C50.3484 42.9731 50.5623 42.5377 50.9114 42.2259C51.2605 41.9141 51.7174 41.7506 52.185 41.77H63.645C65.21 41.77 65.73 42.55 65.73 44.425V58.905C65.73 60.47 66.405 60.99 66.875 60.99C67.815 60.99 68.54 60.47 70.26 58.75C73.9543 54.2447 76.9726 49.2254 79.22 43.85C79.4511 43.2053 79.8861 42.6534 80.459 42.2781C81.032 41.9028 81.7116 41.7244 82.395 41.77H89.69C91.875 41.77 92.34 42.865 91.875 44.425C89.2226 50.3672 85.9405 56.0078 82.085 61.25C81.3 62.45 80.985 63.075 82.085 64.48C82.81 65.575 85.365 67.71 87.085 69.74C89.5836 72.234 91.6591 75.1185 93.23 78.28C93.855 80.31 92.81 81.35 90.73 81.35Z" fill="currentColor"/>
    </symbol>
    <symbol id="instagram" viewBox="0 0 120 120">
        <path d="M65.14 10C70.765 10.015 73.62 10.045 76.085 10.115L77.055 10.15C78.175 10.19 79.28 10.24 80.615 10.3C85.935 10.55 89.565 11.39 92.75 12.625C96.05 13.895 98.83 15.615 101.61 18.39C104.153 20.8887 106.121 23.9124 107.375 27.25C108.61 30.435 109.45 34.065 109.7 39.39C109.76 40.72 109.81 41.825 109.85 42.95L109.88 43.92C109.955 46.38 109.985 49.235 109.995 54.86L110 58.59V65.14C110.012 68.787 109.974 72.434 109.885 76.08L109.855 77.05C109.815 78.175 109.765 79.28 109.705 80.61C109.455 85.935 108.605 89.56 107.375 92.75C106.121 96.0876 104.153 99.1113 101.61 101.61C99.1113 104.153 96.0876 106.121 92.75 107.375C89.565 108.61 85.935 109.45 80.615 109.7L77.055 109.85L76.085 109.88C73.62 109.95 70.765 109.985 65.14 109.995L61.41 110H54.865C51.2163 110.013 47.5676 109.975 43.92 109.885L42.95 109.855C41.763 109.81 40.5763 109.758 39.39 109.7C34.07 109.45 30.44 108.61 27.25 107.375C23.9141 106.12 20.8922 104.153 18.395 101.61C15.8497 99.1118 13.8805 96.0881 12.625 92.75C11.39 89.565 10.55 85.935 10.3 80.61L10.15 77.05L10.125 76.08C10.0328 72.4341 9.99113 68.7871 9.99998 65.14V54.86C9.98614 51.213 10.0228 47.566 10.11 43.92L10.145 42.95C10.185 41.825 10.235 40.72 10.295 39.39C10.545 34.065 11.385 30.44 12.62 27.25C13.8784 23.911 15.8511 20.8872 18.4 18.39C20.8957 15.8477 23.9159 13.8804 27.25 12.625C30.44 11.39 34.065 10.55 39.39 10.3C40.72 10.24 41.83 10.19 42.95 10.15L43.92 10.12C47.5659 10.0312 51.213 9.99283 54.86 10.005L65.14 10ZM60 35C53.3696 35 47.0107 37.6339 42.3223 42.3223C37.6339 47.0107 35 53.3696 35 60C35 66.6304 37.6339 72.9893 42.3223 77.6777C47.0107 82.3661 53.3696 85 60 85C66.6304 85 72.9892 82.3661 77.6776 77.6777C82.3661 72.9893 85 66.6304 85 60C85 53.3696 82.3661 47.0107 77.6776 42.3223C72.9892 37.6339 66.6304 35 60 35ZM60 45C61.9698 44.9997 63.9204 45.3873 65.7404 46.1409C67.5604 46.8944 69.2142 47.999 70.6073 49.3916C72.0004 50.7843 73.1056 52.4377 73.8597 54.2574C74.6138 56.0772 75.0021 58.0277 75.0025 59.9975C75.0028 61.9673 74.6151 63.9179 73.8616 65.7379C73.1081 67.558 72.0035 69.2117 70.6108 70.6048C69.2182 71.9979 67.5648 73.1031 65.745 73.8572C63.9253 74.6114 61.9748 74.9997 60.005 75C56.0267 75 52.2114 73.4196 49.3984 70.6066C46.5853 67.7936 45.005 63.9782 45.005 60C45.005 56.0218 46.5853 52.2064 49.3984 49.3934C52.2114 46.5804 56.0267 45 60.005 45M86.255 27.5C84.5974 27.5 83.0077 28.1585 81.8356 29.3306C80.6635 30.5027 80.005 32.0924 80.005 33.75C80.005 35.4076 80.6635 36.9973 81.8356 38.1694C83.0077 39.3415 84.5974 40 86.255 40C87.9126 40 89.5023 39.3415 90.6744 38.1694C91.8465 36.9973 92.505 35.4076 92.505 33.75C92.505 32.0924 91.8465 30.5027 90.6744 29.3306C89.5023 28.1585 87.9126 27.5 86.255 27.5Z" fill="currentColor"/>
    </symbol>
    <symbol id="telegram" viewBox="0 0 120 120">
        <path d="M59.97 10C50.0809 10 40.4139 12.9324 32.1915 18.4265C23.969 23.9206 17.5604 31.7295 13.776 40.8658C9.99163 50.0021 9.00147 60.0555 10.9307 69.7545C12.86 79.4536 17.622 88.3627 24.6147 95.3553C31.6073 102.348 40.5164 107.11 50.2155 109.039C59.9145 110.969 69.9679 109.978 79.1042 106.194C88.2405 102.41 96.0494 96.001 101.543 87.7785C107.038 79.5561 109.97 69.8891 109.97 60C109.97 53.4339 108.677 46.9321 106.164 40.8658C103.651 34.7995 99.9683 29.2876 95.3253 24.6447C90.6824 20.0017 85.1704 16.3188 79.1042 13.806C73.0379 11.2933 66.5361 10 59.97 10ZM75.87 85.76C75.6834 86.2271 75.399 86.6489 75.0359 86.997C74.6728 87.3451 74.2394 87.6114 73.7648 87.7781C73.2902 87.9449 72.7855 88.0081 72.2845 87.9636C71.7834 87.919 71.2977 87.7678 70.86 87.52L57.285 76.97L48.575 85.01C48.3728 85.1593 48.1364 85.2554 47.8874 85.2894C47.6384 85.3235 47.3848 85.2945 47.15 85.205L48.82 70.26L48.87 70.305L48.905 70.01C48.905 70.01 73.33 47.77 74.325 46.825C75.335 45.88 75 45.675 75 45.675C75.06 44.525 73.195 45.675 73.195 45.675L40.83 66.495L27.355 61.905C27.355 61.905 25.285 61.165 25.09 59.53C24.885 57.91 27.42 57.03 27.42 57.03L81.005 35.74C81.005 35.74 85.41 33.78 85.41 37.03L75.87 85.76Z" fill="currentColor"/>
    </symbol>
    <symbol id="github" viewBox="0 0 120 120">
        <path d="M104.4 15.495C100.733 11.8283 96.3217 9.99667 91.165 10H28.73C23.57 10 19.1583 11.8317 15.495 15.495C11.8283 19.1617 9.99667 23.5733 10 28.73V91.165C10 96.325 11.8317 100.737 15.495 104.4C19.1617 108.067 23.5733 109.898 28.73 109.895H43.3C44.25 109.895 44.965 109.862 45.445 109.795C46.004 109.685 46.5086 109.386 46.875 108.95C47.3517 108.45 47.59 107.725 47.59 106.775L47.555 102.35C47.535 99.53 47.525 97.2967 47.525 95.65L46.025 95.91C45.075 96.0833 43.8733 96.16 42.42 96.14C40.9035 96.111 39.3919 95.9588 37.9 95.685C36.3105 95.3967 34.8145 94.7276 33.54 93.735C32.2022 92.7234 31.2046 91.3281 30.68 89.735L30.03 88.235C29.48 87.0529 28.7919 85.9401 27.98 84.92C27.0467 83.7067 26.1033 82.8833 25.15 82.45L24.7 82.125C24.3875 81.8987 24.1023 81.6369 23.85 81.345C23.609 81.0738 23.4117 80.7668 23.265 80.435C23.135 80.1283 23.2433 79.8783 23.59 79.685C23.9367 79.485 24.5667 79.3867 25.48 79.39L26.78 79.59C27.6467 79.76 28.7183 80.2783 29.995 81.145C31.2853 82.0247 32.3631 83.1811 33.15 84.53C34.15 86.3033 35.3533 87.6583 36.76 88.595C38.17 89.5283 39.59 89.995 41.02 89.995C42.45 89.995 43.6867 89.8867 44.73 89.67C45.7404 89.4606 46.7224 89.1316 47.655 88.69C48.045 85.7867 49.1067 83.5533 50.84 81.99C48.5921 81.7678 46.3642 81.3767 44.175 80.82C42.0387 80.2339 39.9844 79.3823 38.06 78.285C36.0462 77.1887 34.2675 75.7073 32.825 73.925C31.4383 72.1917 30.3 69.9167 29.41 67.1C28.5233 64.28 28.08 61.0267 28.08 57.34C28.08 52.0967 29.7917 47.63 33.215 43.94C31.615 39.9967 31.7667 35.5767 33.67 30.68C34.93 30.2867 36.795 30.5783 39.265 31.555C41.735 32.5317 43.545 33.365 44.695 34.055C45.845 34.755 46.7667 35.3417 47.46 35.815C51.5245 34.6817 55.7255 34.1131 59.945 34.125C64.2383 34.125 68.4017 34.6883 72.435 35.815L74.905 34.255C76.805 33.1143 78.809 32.1567 80.89 31.395C83.1867 30.5283 84.9433 30.29 86.16 30.68C88.11 35.58 88.2817 40.0017 86.675 43.945C90.1017 47.6283 91.815 52.095 91.815 57.345C91.815 61.0317 91.37 64.2933 90.48 67.13C89.5933 69.97 88.445 72.2467 87.035 73.96C85.5629 75.7152 83.7776 77.1817 81.77 78.285C79.67 79.455 77.6317 80.3 75.655 80.82C73.466 81.3784 71.238 81.7712 68.99 81.995C71.24 83.945 72.3667 87.0217 72.37 91.225V106.775C72.37 107.508 72.4783 108.103 72.695 108.56C72.7961 108.779 72.9403 108.976 73.119 109.138C73.2976 109.301 73.5071 109.425 73.735 109.505C74.2117 109.678 74.635 109.785 75.005 109.825C75.375 109.872 75.905 109.893 76.595 109.89H91.165C96.325 109.89 100.737 108.058 104.4 104.395C108.063 100.732 109.895 96.32 109.895 91.16V28.73C109.895 23.57 108.067 19.1583 104.4 15.495Z" fill="currentColor"/>   
    </symbol>

    <!-- Other -->
    <symbol id="review" viewBox="0 0 120 120">
        <path fill-rule="evenodd" clip-rule="evenodd" d="M56.1252 5.11108C54.9751 7.92224 53.6748 10.6171 53.2357 11.1C52.4248 11.9918 51.5145 12.1591 43.6547 12.8614L39.7805 13.2076L44.7541 17.5608L49.7277 21.9141L49.435 23.8182C49.2737 24.8652 48.6469 27.7561 48.0414 30.2414C47.4359 32.7272 47.0729 34.7602 47.2347 34.7597C47.3959 34.7597 49.79 33.4039 52.5545 31.7469C55.3185 30.0903 57.9932 28.735 58.4974 28.735C59.0021 28.735 61.708 30.1246 64.5106 31.8225C67.3131 33.5207 69.6793 34.8246 69.7686 34.7194C69.8578 34.6146 69.3262 32.0259 68.5873 28.9668C67.8485 25.9077 67.3568 22.9477 67.4953 22.3892C67.6333 21.8307 69.8592 19.5363 72.442 17.2906L77.1372 13.2076L73.2533 12.8614C65.3907 12.161 64.4729 11.9923 63.6616 11.1C63.2224 10.6171 61.9222 7.92224 60.7721 5.11108C59.622 2.29992 58.5764 0 58.4486 0C58.3208 0 57.2753 2.29992 56.1252 5.11108ZM17.4316 17.6336C17.0575 18.5133 16.0621 20.9018 15.2187 22.9412C12.9412 28.4509 13.0532 28.3791 5.93643 28.907C2.60133 29.1545 -0.0692639 29.5193 0.00136949 29.7181C0.0720029 29.9165 2.11619 31.8192 4.54421 33.9453C7.25709 36.3212 9.01781 38.2198 9.11215 38.871C9.19626 39.4541 8.70601 42.3287 8.02291 45.2595C7.33981 48.1898 6.89138 50.6978 7.0266 50.8331C7.16183 50.968 9.56429 49.7013 12.365 48.0178C15.1657 46.3348 17.7559 44.9577 18.1212 44.9577C18.4869 44.9577 21.2272 46.4048 24.2114 48.1731C27.1962 49.9414 29.6377 51.311 29.6377 51.2165C29.6377 51.1219 29.0243 48.4007 28.2747 45.1691C27.363 41.2386 27.0414 38.9651 27.3035 38.3018C27.5186 37.7563 29.6827 35.6445 32.1121 33.6097C34.5411 31.5745 36.4477 29.7779 36.3483 29.618C36.2493 29.4576 33.9142 29.1837 31.16 29.0094C23.3545 28.5149 23.5753 28.6549 21.0162 22.5686C18.0398 15.4894 18.2304 15.7522 17.4316 17.6336ZM96.1418 21.9757C93.2955 28.7355 93.6301 28.5093 85.7373 29.0094C82.9831 29.1837 80.648 29.4576 80.549 29.618C80.4495 29.7779 82.3562 31.5745 84.7851 33.6097C87.2146 35.6445 89.3786 37.7563 89.5938 38.3018C89.8559 38.9651 89.5343 41.2386 88.6226 45.1691C87.873 48.4007 87.2596 51.1219 87.2596 51.2165C87.2596 51.311 89.7011 49.9414 92.6859 48.1731C95.6701 46.4048 98.4104 44.9577 98.7761 44.9577C99.1414 44.9577 101.732 46.3348 104.532 48.0178C107.333 49.7013 109.736 50.9666 109.873 50.8304C110.01 50.6936 109.578 48.27 108.914 45.4435C108.25 42.6175 107.706 39.7952 107.706 39.1723C107.706 38.3166 108.846 37.0425 112.353 33.9736C114.909 31.7381 117 29.784 117 29.6319C117 29.4794 114.277 29.1531 110.949 28.9061C105.913 28.5325 104.755 28.3054 104.05 27.5531C103.583 27.0562 102.312 24.4592 101.225 21.7825C100.138 19.1057 99.0968 16.7539 98.9113 16.5564C98.7264 16.3585 97.4796 18.7975 96.1418 21.9757ZM50.5489 52.1393C48.8876 52.5087 45.6463 53.7412 43.3461 54.8782C34.6294 59.1874 28.8207 66.0482 25.8467 75.5491C24.9461 78.4261 24.7602 80.0238 24.7681 84.8192C24.7807 92.6441 26.1659 97.237 30.4569 103.683C32.1726 106.261 32.8905 106.728 32.8905 105.267C32.8905 104.787 33.7479 102.685 34.7962 100.596C37.0421 96.1209 40.7085 92.1468 44.6268 89.9414L47.3016 88.436L45.8949 86.6645C43.335 83.4403 42.4516 80.841 42.4334 76.4761C42.419 73.0921 42.5979 72.1683 43.7002 69.9291C45.2156 66.8514 48.7728 63.3714 51.8421 61.9633C54.9885 60.5199 61.0221 60.5399 64.2201 62.005C73.7519 66.3703 76.778 77.8634 70.5553 86.0638L68.8066 88.3683L71.1789 89.6847C74.8923 91.7449 79.4714 96.6743 81.4138 100.702C82.3288 102.6 83.0774 104.483 83.0774 104.887C83.0774 109.235 89.3438 98.5677 90.7913 91.7556C91.8894 86.5884 91.493 79.1946 89.86 74.3904C86.3744 64.133 78.7371 56.5139 68.4395 53.02C63.8372 51.4584 55.4634 51.0464 50.5489 52.1393ZM55.8268 67.1648C49.8574 68.6661 46.7156 75.4726 49.4963 80.8794C50.705 83.2294 51.653 84.0749 54.476 85.3208C63.3474 89.2346 71.5047 78.3913 65.5794 70.5623C63.5384 67.8656 59.1368 66.3323 55.8268 67.1648ZM53.5503 92.8819C49.7826 93.795 46.7807 95.4799 44.012 98.2354C41.1383 101.095 39.3172 104.517 38.4678 108.651C37.9231 111.301 37.9413 111.422 38.9989 112.249C40.8874 113.727 46.473 116.295 49.6195 117.133C54.3342 118.388 62.8247 118.263 67.2615 116.873C71.0637 115.683 75.2334 113.716 77.028 112.266C78.1437 111.365 78.1619 111.258 77.6237 108.7C75.889 100.452 69.6612 94.1733 61.7545 92.7012C58.6076 92.1153 56.5234 92.1612 53.5503 92.8819Z" fill="black"/>
    </symbol>
</svg>